<svg xmlns="http://www.w3.org/2000/svg" width="100%" height="100%" viewBox="0 0 288 101" xmlns:xlink="http://www.w3.org/1999/xlink" preserveAspectRatio="xMidYMin meet">
  <defs>
    <path id="a" d="M49.8542146,95.2158245 C49.8542146,91.8915439 47.5106781,89.5699971 44.1547889,89.5699971 C40.8358972,89.5699971 38.5177511,91.8915439 38.5177511,95.2158245 C38.5177511,98.5775259 40.8358972,100.925594 44.1547889,100.925594 C47.5106781,100.925594 49.8542146,98.5775259 49.8542146,95.2158245"/>
    <path id="b" d="M77.8330882,65.8917097 L64.5829118,65.8917097 L64.8183174,64.8544615 C65.5626196,61.5737781 68.2024987,59.453868 71.5449673,59.453868 C74.783335,59.453868 77.2578136,61.6533428 77.7021461,64.9282133 L77.8330882,65.8917097 Z M71.5449673,52.7747888 C61.8512645,52.7747888 55.0818136,59.368127 55.0818136,68.8105371 C55.0818136,78.2137097 62.2785491,84.7808896 72.5841612,84.7808896 C76.4834055,84.7808896 80.9162116,83.7589004 85.1495214,81.8922169 L82.4755466,75.815868 C79.3924232,77.3130658 76.4801411,78.1007205 74.0082015,78.1007205 C69.3624786,78.1007205 65.7570378,75.6814435 64.8233955,71.9375406 L64.5589723,70.882127 L86.8608363,70.882127 C86.9355567,70.0443356 86.9736423,69.1756629 86.9736423,68.291368 C86.9736423,59.1548644 80.628937,52.7747888 71.5449673,52.7747888 L71.5449673,52.7747888 Z"/>
    <path id="c" d="M102.449036,97.5759183 L102.449036,52.7875047 C95.8283003,52.7875047 92.7934186,55.9370335 92.7934186,61.6587924 L92.7934186,97.5759183 L102.449036,97.5759183 Z"/>
    <path id="d" d="M48.9527093,84.0021723 L48.9527093,52.7877227 C42.4309965,52.7877227 39.2970922,55.9379781 39.2970922,61.6586471 L39.2970922,84.0021723 L48.9527093,84.0021723 Z"/>
    <path id="e" d="M19.405868,76.2903863 L34.3789662,95.3979151 L22.9706841,95.3979151 L9.79450277,77.8006633 L9.79450277,95.3979151 L-3.62720384e-05,95.3979151 L-3.62720384e-05,61.6584655 C-3.62720384e-05,55.893836 2.5861602,52.782818 9.79450277,52.782818 L9.79450277,73.5423144 L22.4458277,56.9663252 C24.7197219,54.0093504 27.8351275,52.5081561 31.7013642,52.5081561 C33.5454348,52.5081561 35.14213,52.8605662 36.1251023,53.1424942 L19.405868,76.2903863 Z"/>
  </defs>
  <g fill="none" fill-rule="evenodd">
    <path fill="#00223F" d="M143.218918 27.3222076C145.15657 27.3222076 147.238948 27.7567255 149.436671 28.6257615L148.858132 30.4793658C146.891462 29.6684594 145.040862 29.2630061 143.392661 29.2630061 140.616762 29.2630061 138.765799 30.5665601 138.765799 32.5360601 138.765799 37.7495493 150.130555 34.7951176 150.130555 42.1524953 150.130555 45.3100169 147.325638 47.4822435 143.218918 47.4822435 141.166283 47.4822435 138.794817 46.9608946 136.308006 45.9472615L136.886182 44.0932939C139.083543 44.9623299 141.281991 45.541445 143.0459 45.541445 145.90849 45.541445 147.759452 44.1804881 147.759452 42.1524953 147.759452 36.8227471 136.422988 39.7194126 136.422988 32.5360601 136.422988 29.4653694 139.199613 27.3222076 143.218918 27.3222076zM158.316465 45.8020104C160.745604 45.8020104 162.451841 44.0643018 162.451841 41.5730896L162.451841 40.3857946C161.468869 40.1540032 160.514551 40.0381076 159.559871 40.0381076 156.783972 40.0381076 155.135408 41.1967011 155.135408 43.1084349 155.135408 44.6437802 156.494521 45.8020104 158.316465 45.8020104M159.299801 38.5899565C160.283136 38.5899565 161.352798 38.7054888 162.451841 38.9950464L162.451841 37.5468953C162.451841 35.7510572 161.064073 34.476568 159.01035 34.476568 157.506511 34.476568 155.97438 34.824255 154.354833 35.5196291L153.718622 33.8393234C155.684929 33.0861831 157.477493 32.7097946 159.271146 32.7097946 162.451841 32.7097946 164.649926 34.6792946 164.649926 37.6050248L164.649926 44.4119888C164.649926 45.1938306 165.112395 45.6864781 165.92235 45.6864781 166.153403 45.6864781 166.500889 45.6283486 166.674269 45.5992838L166.847287 47.3373558C166.384818 47.4241867 165.864314 47.4823162 165.343811 47.4823162 163.810954 47.4823162 162.827982 46.5842155 162.654239 45.1360644 161.526541 46.6132802 159.704959 47.4823162 157.766944 47.4823162 154.991045 47.4823162 152.880012 45.6574133 152.880012 43.2533953 152.880012 40.2986004 155.309151 38.5899565 159.299801 38.5899565M169.423073 47.1346655L171.707849 47.1346655 171.707849 33.057518 169.423073 33.057518 169.423073 47.1346655zM170.579788 27.2351223C171.476433 27.2351223 172.112645 27.8723669 172.112645 28.7704676 172.112645 29.6685683 171.476433 30.3054496 170.579788 30.3054496 169.654851 30.3054496 169.01864 29.6685683 169.01864 28.7704676 169.01864 27.8723669 169.654851 27.2351223 170.579788 27.2351223L170.579788 27.2351223zM178.563083 43.8903856C178.563083 44.9334468 179.228312 45.5993928 180.268957 45.5993928 180.673753 45.5993928 181.165239 45.5125619 181.657451 45.3966662L181.946176 47.2215691C181.165239 47.3952309 180.414045 47.4820619 179.777834 47.4820619 177.608403 47.4820619 176.278307 46.1785079 176.278307 44.0931122L176.278307 26.7429108 178.563083 26.7429108 178.563083 43.8903856zM184.520584 47.1346655L186.805723 47.1346655 186.805723 33.057518 184.520584 33.057518 184.520584 47.1346655zM185.677662 27.2351223C186.573945 27.2351223 187.210519 27.8723669 187.210519 28.7704676 187.210519 29.6685683 186.573945 30.3054496 185.677662 30.3054496 184.752363 30.3054496 184.116151 29.6685683 184.116151 28.7704676 184.116151 27.8723669 184.752363 27.2351223 185.677662 27.2351223L185.677662 27.2351223zM191.375746 33.057627L193.226708 33.057627 193.516159 35.6353068C194.470114 33.7813392 196.349731 32.7099399 198.576834 32.7099399 201.70022 32.7099399 203.926235 34.8534651 203.926235 37.9528572L203.926235 47.1347745 201.613529 47.1347745 201.613529 38.3005442C201.613529 36.1570191 200.08031 34.6503752 197.911968 34.6503752 195.482829 34.6503752 193.660522 36.5043428 193.660522 39.1982817L193.660522 47.1347745 191.375746 47.1347745 191.375746 33.057627zM214.137322 45.5992475C216.566823 45.5992475 218.27306 43.804136 218.27306 41.2253662L218.27306 38.9663086C218.27306 36.4176935 216.566823 34.5924273 214.137322 34.5924273 211.476405 34.5924273 209.597513 36.8805496 209.597513 40.0962007 209.597513 43.3398266 211.476405 45.5992475 214.137322 45.5992475L214.137322 45.5992475zM220.558198 47.3950856C220.558198 50.9580604 217.637211 53.5074022 213.617181 53.5074022 211.967891 53.5074022 210.060707 53.1015856 208.063931 52.2612511L208.758541 50.5239058C210.493433 51.2766827 212.142722 51.6530712 213.442712 51.6530712 216.247629 51.6530712 218.244405 49.944064 218.244405 47.4822799L218.244405 44.9333014C217.261433 46.5554777 215.583488 47.4822799 213.588889 47.4822799 209.885876 47.4822799 207.224959 44.4115892 207.224959 40.0962007 207.224959 35.7804489 209.885876 32.7097583 213.588889 32.7097583 215.670904 32.7097583 217.405433 33.6656252 218.41706 35.4040604L218.705423 33.0574453 220.558198 33.0574453 220.558198 47.3950856zM226.401987 44.1804155C227.328375 44.1804155 228.020808 44.8463615 228.020808 45.8022284 228.020808 46.7290306 227.328375 47.3953399 226.401987 47.3953399 225.447307 47.3953399 224.783166 46.7290306 224.783166 45.8022284 224.783166 44.8463615 225.447307 44.1804155 226.401987 44.1804155M243.378825 27.3222076C245.605203 27.3222076 247.890342 28.0466464 249.943702 29.4653694L248.930261 31.087909C247.31144 29.9293155 245.489132 29.2917076 243.695843 29.2917076 239.271742 29.2917076 236.263339 32.5938263 236.263339 37.4022255 236.263339 42.2106248 239.271742 45.5127435 243.695843 45.5127435 245.489132 45.5127435 247.31144 44.8751356 248.930261 43.7165421L249.943702 45.3387183C247.890342 46.758168 245.605203 47.4822435 243.378825 47.4822435 237.709505 47.4822435 233.805546 43.3401536 233.805546 37.4022255 233.805546 31.4642975 237.709505 27.3222076 243.378825 27.3222076M253.358388 47.1346655L255.643526 47.1346655 255.643526 33.057518 253.358388 33.057518 253.358388 47.1346655zM254.514378 27.2351223C255.412111 27.2351223 256.047597 27.8723669 256.047597 28.7704676 256.047597 29.6685683 255.412111 30.3054496 254.514378 30.3054496 253.589804 30.3054496 252.952141 29.6685683 252.952141 28.7704676 252.952141 27.8723669 253.589804 27.2351223 254.514378 27.2351223L254.514378 27.2351223zM263.884244 33.057627L268.310158 33.057627 268.310158 34.8825299 263.884244 34.8825299 263.884244 43.1663464C263.884244 44.6144975 264.869392 45.5994291 266.313745 45.5994291 266.920939 45.5994291 267.587256 45.4835335 268.310158 45.3098716L268.629352 47.1057097C267.644204 47.3662025 266.719992 47.4820982 265.821896 47.4820982 263.307518 47.4820982 261.601282 45.8021558 261.601282 43.369073L261.601282 34.8825299 258.680294 34.8825299 258.680294 33.057627 261.601282 33.057627 261.601282 28.8864723 263.884244 28.8864723 263.884244 33.057627zM277.361556 49.2490169C276.205928 52.1751104 274.759399 53.5073658 272.504729 53.5073658 271.954483 53.5073658 271.231218 53.4201716 270.538785 53.2461464L270.85544 51.3925421C271.377394 51.5371392 271.897536 51.6239701 272.273314 51.6239701 273.689012 51.6239701 274.527984 50.813427 275.281717 48.8435637L276.002805 47.0186608 270.191299 33.0577723 272.590331 33.0577723 277.103661 44.4700457 281.468639 33.0577723 283.89814 33.0577723 277.361556 49.2490169zM286.270513 44.1804155C287.196901 44.1804155 287.89151 44.8463615 287.89151 45.8022284 287.89151 46.7290306 287.196901 47.3953399 286.270513 47.3953399 285.318009 47.3953399 284.651692 46.7290306 284.651692 45.8022284 284.651692 44.8463615 285.318009 44.1804155 286.270513 44.1804155"/>
    <use fill="#009EE0" xlink:href="#a"/>
    <use fill="#FFFFFF" fill-opacity=".5" xlink:href="#a"/>
    <use fill="#009EE0" xlink:href="#b"/>
    <use fill="#FFFFFF" fill-opacity=".5" xlink:href="#b"/>
    <use fill="#009EE0" xlink:href="#c"/>
    <use fill="#FFFFFF" fill-opacity=".5" xlink:href="#c"/>
    <use fill="#009EE0" xlink:href="#d"/>
    <use fill="#FFFFFF" fill-opacity=".5" xlink:href="#d"/>
    <use fill="#009EE0" xlink:href="#e"/>
    <use fill="#FFFFFF" fill-opacity=".5" xlink:href="#e"/>
    <path fill="#00223F" d="M44.1546438,3.63309352e-05 C40.8357521,3.63309352e-05 38.5179688,2.34810468 38.5179688,5.70980612 C38.5179688,9.03408669 40.8357521,11.3556335 44.1546438,11.3556335 C47.5108957,11.3556335 49.8540695,9.03408669 49.8540695,5.70980612 C49.8540695,2.34810468 47.5108957,3.63309352e-05 44.1546438,3.63309352e-05"/>
    <path fill="#00223B" d="M115.036921,36.7953899 C111.718029,36.7953899 109.400246,39.1438216 109.400246,42.5051597 C109.400246,45.8294403 111.718029,48.1509871 115.036921,48.1509871 C118.393173,48.1509871 120.736709,45.8294403 120.736709,42.5051597 C120.736709,39.1438216 118.393173,36.7953899 115.036921,36.7953899"/>
    <path fill="#00223F" d="M77.8330882 29.2616982L64.5829118 29.2616982 64.8183174 28.2240867C65.5626196 24.9437665 68.2024987 22.8238565 71.5449673 22.8238565 74.783335 22.8238565 77.2578136 25.0233313 77.7021461 28.2978385L77.8330882 29.2616982zM71.5449673 16.144414C61.8512645 16.144414 55.0818136 22.7384788 55.0818136 32.1805255 55.0818136 41.5840615 62.2785491 48.1512414 72.5841612 48.1512414 76.4834055 48.1512414 80.9162116 47.1285255 85.1495214 45.2622054L82.4755466 39.1858565C79.3924232 40.6830543 76.4801411 41.4710723 74.0082015 41.4710723 69.3624786 41.4710723 65.7570378 39.051432 64.8233955 35.3075291L64.5589723 34.2524788 86.8608363 34.2524788C86.9355567 33.4139608 86.9736423 32.5456514 86.9736423 31.6613565 86.9736423 22.5252162 80.628937 16.144414 71.5449673 16.144414L71.5449673 16.144414zM92.7935275 3.34963957L92.7935275 39.2667655C92.7935275 44.9881612 95.8280463 48.1380532 102.449145 48.1380532L102.449145 3.34963957 92.7935275 3.34963957zM39.2972373 16.9233493L39.2972373 39.2668745C39.2972373 44.9875435 42.4311416 48.1381622 48.9528544 48.1381622L48.9528544 16.9233493 39.2972373 16.9233493zM19.405868 24.6351716L34.3789662 5.52764281 22.9706841 5.52764281 9.79450277 23.1248946 9.79450277 5.52764281-.0000362720384 5.52764281-.0000362720384 39.2667291C-.0000362720384 45.0317219 2.5861602 48.1427399 9.79450277 48.1427399L9.79450277 27.3832435 22.4458277 43.9592327C24.7197219 46.9162076 27.8351275 48.4174018 31.7013642 48.4174018 33.5454348 48.4174018 35.14213 48.0649917 36.1251023 47.7827004L19.405868 24.6351716z"/>
  </g>
</svg>
